<svg fill="none" height="483" viewBox="0 0 1246 483" width="1246" xmlns="http://www.w3.org/2000/svg"><g fill="#fefefe"><path d="m169 113c1.105 0 2-.448 2-1s-.895-1-2-1-2 .448-2 1 .895 1 2 1z" opacity=".23391"/><path d="m248.5 117c.828 0 1.5-.448 1.5-1s-.672-1-1.5-1-1.5.448-1.5 1 .672 1 1.5 1z" opacity=".329055"/><path d="m448.5 50c.828 0 1.5-.4477 1.5-1s-.672-1-1.5-1-1.5.4477-1.5 1 .672 1 1.5 1z" opacity=".176386"/><path d="m677 98c.552 0 1-.2239 1-.5s-.448-.5-1-.5-1 .2239-1 .5.448.5 1 .5z" opacity=".489583"/><path d="m1121 477c.55 0 1-.448 1-1s-.45-1-1-1-1 .448-1 1 .45 1 1 1z" opacity=".522577"/><path d="m837.5 131c.828 0 1.5-.448 1.5-1s-.672-1-1.5-1-1.5.448-1.5 1 .672 1 1.5 1z" opacity=".176386"/><path d="m1 277c.55228 0 1-.448 1-1s-.44772-1-1-1c-.552285 0-1 .448-1 1s.447715 1 1 1z" opacity=".545503"/><path d="m10 42c.5523 0 1-.4477 1-1s-.4477-1-1-1c-.55228 0-1 .4477-1 1s.44772 1 1 1z" opacity=".283715"/><path d="m116 48c1.105 0 2-.4477 2-1s-.895-1-2-1-2 .4477-2 1 .895 1 2 1z" opacity=".23391"/><path d="m1021 261c.55 0 1-.448 1-1s-.45-1-1-1-1 .448-1 1 .45 1 1 1z" opacity=".283715"/><path d="m1107 277c.55 0 1-.448 1-1s-.45-1-1-1-1 .448-1 1 .45 1 1 1z"/><path d="m971 2c1.105 0 2-.44772 2-1 0-.552285-.895-1-2-1s-2 .447715-2 1c0 .55228.895 1 2 1z" opacity=".23391"/><path d="m1057.5 159c.83 0 1.5-.448 1.5-1s-.67-1-1.5-1-1.5.448-1.5 1 .67 1 1.5 1z" opacity=".329055"/><path d="m902.5 483c1.381 0 2.5-.672 2.5-1.5s-1.119-1.5-2.5-1.5-2.5.672-2.5 1.5 1.119 1.5 2.5 1.5z" opacity=".235212"/><path d="m1245 359c.55 0 1-.448 1-1s-.45-1-1-1-1 .448-1 1 .45 1 1 1z"/><path d="m1181 147c.55 0 1-.448 1-1s-.45-1-1-1-1 .448-1 1 .45 1 1 1z" opacity=".283715"/><path d="m1222 110c.55 0 1-.448 1-1s-.45-1-1-1-1 .448-1 1 .45 1 1 1z"/><path d="m1216.5 18c.83 0 1.5-.4477 1.5-1s-.67-1-1.5-1-1.5.4477-1.5 1 .67 1 1.5 1z" opacity=".329055"/></g></svg>