<svg width="1170" height="671" viewBox="0 0 1170 671" fill="none" xmlns="http://www.w3.org/2000/svg">
<path d="M201 671C201.552 671 202 670.552 202 670C202 669.448 201.552 669 201 669C200.448 669 200 669.448 200 670C200 670.552 200.448 671 201 671Z" fill="#FEFEFE"/>
<path d="M119 558C119.552 558 120 557.552 120 557C120 556.448 119.552 556 119 556C118.448 556 118 556.448 118 557C118 557.552 118.448 558 119 558Z" fill="#FEFEFE"/>
<path d="M441 1C441.552 1 442 0.776142 442 0.5C442 0.223858 441.552 0 441 0C440.448 0 440 0.223858 440 0.5C440 0.776142 440.448 1 441 1Z" fill="#FEFEFE"/>
<path opacity="0.344238" d="M339 198C339.552 198 340 197.552 340 197C340 196.448 339.552 196 339 196C338.448 196 338 196.448 338 197C338 197.552 338.448 198 339 198Z" fill="#FEFEFE"/>
<path d="M573 113C573.552 113 574 112.776 574 112.5C574 112.224 573.552 112 573 112C572.448 112 572 112.224 572 112.5C572 112.776 572.448 113 573 113Z" fill="#FEFEFE"/>
<path opacity="0.474679" d="M917 391C917.552 391 918 390.776 918 390.5C918 390.224 917.552 390 917 390C916.448 390 916 390.224 916 390.5C916 390.776 916.448 391 917 391Z" fill="#FEFEFE"/>
<path opacity="0.474679" d="M852 174C852.552 174 853 173.776 853 173.5C853 173.224 852.552 173 852 173C851.448 173 851 173.224 851 173.5C851 173.776 851.448 174 852 174Z" fill="#FEFEFE"/>
<path opacity="0.307524" d="M717 96C717.552 96 718 95.5523 718 95C718 94.4477 717.552 94 717 94C716.448 94 716 94.4477 716 95C716 95.5523 716.448 96 717 96Z" fill="#FEFEFE"/>
<path opacity="0.520206" d="M721.5 171C722.881 171 724 170.328 724 169.5C724 168.672 722.881 168 721.5 168C720.119 168 719 168.672 719 169.5C719 170.328 720.119 171 721.5 171Z" fill="#FEFEFE"/>
<path opacity="0.537063" d="M2.5 361C3.88071 361 5 360.328 5 359.5C5 358.672 3.88071 358 2.5 358C1.11929 358 0 358.672 0 359.5C0 360.328 1.11929 361 2.5 361Z" fill="#FEFEFE"/>
<path opacity="0.329055" d="M190.5 176C191.328 176 192 175.552 192 175C192 174.448 191.328 174 190.5 174C189.672 174 189 174.448 189 175C189 175.552 189.672 176 190.5 176Z" fill="#FEFEFE"/>
<path d="M1031 636C1031.55 636 1032 635.552 1032 635C1032 634.448 1031.55 634 1031 634C1030.45 634 1030 634.448 1030 635C1030 635.552 1030.45 636 1031 636Z" fill="#FEFEFE"/>
<path opacity="0.182617" d="M896.5 498C897.881 498 899 497.328 899 496.5C899 495.672 897.881 495 896.5 495C895.119 495 894 495.672 894 496.5C894 497.328 895.119 498 896.5 498Z" fill="#FEFEFE"/>
<path d="M1167.5 539C1168.88 539 1170 538.328 1170 537.5C1170 536.672 1168.88 536 1167.5 536C1166.12 536 1165 536.672 1165 537.5C1165 538.328 1166.12 539 1167.5 539Z" fill="#FEFEFE"/>
<path d="M1119.5 22C1120.33 22 1121 21.5523 1121 21C1121 20.4477 1120.33 20 1119.5 20C1118.67 20 1118 20.4477 1118 21C1118 21.5523 1118.67 22 1119.5 22Z" fill="#FEFEFE"/>
<path d="M340 114C340.552 114 341 113.552 341 113C341 112.448 340.552 112 340 112C339.448 112 339 112.448 339 113C339 113.552 339.448 114 340 114Z" fill="#FEFEFE"/>
<path d="M434.5 168C435.881 168 437 167.328 437 166.5C437 165.672 435.881 165 434.5 165C433.119 165 432 165.672 432 166.5C432 167.328 433.119 168 434.5 168Z" fill="#FEFEFE"/>
<path d="M100.5 95C101.328 95 102 94.5523 102 94C102 93.4477 101.328 93 100.5 93C99.6716 93 99 93.4477 99 94C99 94.5523 99.6716 95 100.5 95Z" fill="#FEFEFE"/>
<path d="M76 654C76.5523 654 77 653.552 77 653C77 652.448 76.5523 652 76 652C75.4477 652 75 652.448 75 653C75 653.552 75.4477 654 76 654Z" fill="#FEFEFE"/>
<path d="M1005 441C1005.55 441 1006 440.552 1006 440C1006 439.448 1005.55 439 1005 439C1004.45 439 1004 439.448 1004 440C1004 440.552 1004.45 441 1005 441Z" fill="#FEFEFE"/>
<path d="M1107 259C1107.55 259 1108 258.552 1108 258C1108 257.448 1107.55 257 1107 257C1106.45 257 1106 257.448 1106 258C1106 258.552 1106.45 259 1107 259Z" fill="#FEFEFE"/>
</svg>
