<svg width="262" height="307" viewBox="0 0 262 307" fill="none" xmlns="http://www.w3.org/2000/svg"><path opacity=".315" d="M55.5 307c1.38 0 2.5-.672 2.5-1.5s-1.12-1.5-2.5-1.5-2.5.672-2.5 1.5 1.12 1.5 2.5 1.5z" fill="#FEFEFE"/><path opacity=".284" d="M56 112a1 1 0 1 0 0-2 1 1 0 0 0 0 2z" fill="#FEFEFE"/><path d="M261 2a1 1 0 1 0 0-2 1 1 0 0 0 0 2z" fill="#FEFEFE"/><path opacity=".308" d="M260 111a1 1 0 1 0 0-2 1 1 0 0 0 0 2z" fill="#FEFEFE"/><path opacity=".537" d="M89.5 218c1.38 0 2.5-.672 2.5-1.5s-1.12-1.5-2.5-1.5-2.5.672-2.5 1.5 1.12 1.5 2.5 1.5z" fill="#FEFEFE"/><path opacity=".426" d="M2.5 71c1.38 0 2.5-.672 2.5-1.5S3.88 68 2.5 68 0 68.672 0 69.5 1.12 71 2.5 71z" fill="#FEFEFE"/></svg>