<svg width="1048" height="729" viewBox="0 0 1048 729" fill="none" xmlns="http://www.w3.org/2000/svg">
<path d="M408.5 655C409.328 655 410 654.552 410 654C410 653.448 409.328 653 408.5 653C407.672 653 407 653.448 407 654C407 654.552 407.672 655 408.5 655Z" fill="#FEFEFE"/>
<path opacity="0.545503" d="M289 439C289.552 439 290 438.552 290 438C290 437.448 289.552 437 289 437C288.448 437 288 437.448 288 438C288 438.552 288.448 439 289 439Z" fill="#FEFEFE"/>
<path d="M281 317C281.552 317 282 316.552 282 316C282 315.448 281.552 315 281 315C280.448 315 280 315.448 280 316C280 316.552 280.448 317 281 317Z" fill="#FEFEFE"/>
<path d="M64.5 729C65.8807 729 67 728.328 67 727.5C67 726.672 65.8807 726 64.5 726C63.1193 726 62 726.672 62 727.5C62 728.328 63.1193 729 64.5 729Z" fill="#FEFEFE"/>
<path opacity="0.315406" d="M2.5 602C3.88071 602 5 601.328 5 600.5C5 599.672 3.88071 599 2.5 599C1.11929 599 0 599.672 0 600.5C0 601.328 1.11929 602 2.5 602Z" fill="#FEFEFE"/>
<path d="M281 317C281.552 317 282 316.552 282 316C282 315.448 281.552 315 281 315C280.448 315 280 315.448 280 316C280 316.552 280.448 317 281 317Z" fill="#FEFEFE"/>
<path d="M48.5 2C49.3284 2 50 1.55228 50 1C50 0.447715 49.3284 0 48.5 0C47.6716 0 47 0.447715 47 1C47 1.55228 47.6716 2 48.5 2Z" fill="#FEFEFE"/>
<path d="M27.5 599C28.8807 599 30 598.328 30 597.5C30 596.672 28.8807 596 27.5 596C26.1193 596 25 596.672 25 597.5C25 598.328 26.1193 599 27.5 599Z" fill="#FEFEFE"/>
<path d="M1046.5 239C1047.33 239 1048 238.552 1048 238C1048 237.448 1047.33 237 1046.5 237C1045.67 237 1045 237.448 1045 238C1045 238.552 1045.67 239 1046.5 239Z" fill="#FEFEFE"/>
</svg>
