<svg width="1254" height="576" viewBox="0 0 1254 576" fill="none" xmlns="http://www.w3.org/2000/svg">
<path opacity="0.330264" d="M439.5 528C440.881 528 442 527.105 442 526C442 524.895 440.881 524 439.5 524C438.119 524 437 524.895 437 526C437 527.105 438.119 528 439.5 528Z" fill="#FEFEFE"/>
<path opacity="0.566802" d="M281 506C281.552 506 282 505.552 282 505C282 504.448 281.552 504 281 504C280.448 504 280 504.448 280 505C280 505.552 280.448 506 281 506Z" fill="#FEFEFE"/>
<path opacity="0.489583" d="M501 173C501.552 173 502 172.776 502 172.5C502 172.224 501.552 172 501 172C500.448 172 500 172.224 500 172.5C500 172.776 500.448 173 501 173Z" fill="#FEFEFE"/>
<path opacity="0.344238" d="M469 212C469.552 212 470 211.776 470 211.5C470 211.224 469.552 211 469 211C468.448 211 468 211.224 468 211.5C468 211.776 468.448 212 469 212Z" fill="#FEFEFE"/>
<path d="M166 2C166.552 2 167 1.55228 167 1C167 0.447715 166.552 0 166 0C165.448 0 165 0.447715 165 1C165 1.55228 165.448 2 166 2Z" fill="#FEFEFE"/>
<path opacity="0.425921" d="M2.5 261C3.88071 261 5 260.328 5 259.5C5 258.672 3.88071 258 2.5 258C1.11929 258 0 258.672 0 259.5C0 260.328 1.11929 261 2.5 261Z" fill="#FEFEFE"/>
<path d="M974 576C974.552 576 975 575.552 975 575C975 574.448 974.552 574 974 574C973.448 574 973 574.448 973 575C973 575.552 973.448 576 974 576Z" fill="#FEFEFE"/>
<path opacity="0.296247" d="M923.5 283C924.881 283 926 282.328 926 281.5C926 280.672 924.881 280 923.5 280C922.119 280 921 280.672 921 281.5C921 282.328 922.119 283 923.5 283Z" fill="#FEFEFE"/>
<path d="M1251.5 317C1252.88 317 1254 316.328 1254 315.5C1254 314.672 1252.88 314 1251.5 314C1250.12 314 1249 314.672 1249 315.5C1249 316.328 1250.12 317 1251.5 317Z" fill="#FEFEFE"/>
<path d="M555 221C555.552 221 556 220.776 556 220.5C556 220.224 555.552 220 555 220C554.448 220 554 220.224 554 220.5C554 220.776 554.448 221 555 221Z" fill="#FEFEFE"/>
<path d="M616 205C616.552 205 617 204.552 617 204C617 203.448 616.552 203 616 203C615.448 203 615 203.448 615 204C615 204.552 615.448 205 616 205Z" fill="#FEFEFE"/>
<path d="M163.5 111C164.328 111 165 110.552 165 110C165 109.448 164.328 109 163.5 109C162.672 109 162 109.448 162 110C162 110.552 162.672 111 163.5 111Z" fill="#FEFEFE"/>
</svg>
