<svg width="1709" height="391" viewBox="0 0 1709 391" fill="none" xmlns="http://www.w3.org/2000/svg">
<path d="M684.204 1L1 318.796" stroke="#2E1865"/>
<path d="M689.216 1.40021L70.5376 310.227" stroke="#2E1865"/>
<path d="M697.034 1.42511L70.2852 337.273" stroke="#2E1865"/>
<path d="M706.971 1.49823L70.624 371.337" stroke="#2E1865"/>
<path d="M716.766 1.52997L149.366 361.444" stroke="#2E1865"/>
<path d="M727.424 1.39026L208.366 361.775" stroke="#2E1865"/>
<path d="M737.17 1.70929L268.526 361.85" stroke="#2E1865"/>
<path d="M748.137 1.58875L330.599 361.823" stroke="#2E1865"/>
<path d="M758.22 1.72644L391.307 362.168" stroke="#2E1865"/>
<path d="M768.133 1.78217L452.25 362.73" stroke="#2E1865"/>
<path d="M778.218 1.78522L512.921 362.9" stroke="#2E1865"/>
<path d="M788.585 1.758L573.359 361.99" stroke="#2E1865"/>
<path d="M806.591 1.85858L633.582 363.252" stroke="#2E1865"/>
<path d="M819.038 1.7016L694.344 363.247" stroke="#2E1865"/>
<path d="M829.624 2.17859L755.333 364.01" stroke="#2E1865"/>
<path d="M839.533 2.36615L816.67 363.598" stroke="#2E1865"/>
<path d="M850.913 2.35718L876.049 364.238" stroke="#2E1865"/>
<path d="M861.747 2.29431L935.617 364.303" stroke="#2E1865"/>
<path d="M871.551 2.36572L997.51 364.88" stroke="#2E1865"/>
<path d="M880.928 2.21643L1058.34 365.112" stroke="#2E1865"/>
<path d="M892.482 2.28235L1118.06 365.473" stroke="#2E1865"/>
<path d="M902.476 2.60986L1177.86 365.901" stroke="#2E1865"/>
<path d="M913.352 2.2533L1239.78 365.474" stroke="#2E1865"/>
<path d="M922.872 2.45966L1302.03 367.342" stroke="#2E1865"/>
<path d="M933.412 2.68604L1364.79 366.034" stroke="#2E1865"/>
<path d="M942.665 2.71313L1423.21 367.029" stroke="#2E1865"/>
<path d="M953.6 2.79144L1485.71 367.521" stroke="#2E1865"/>
<path d="M964.569 2.86151L1538.69 367.557" stroke="#2E1865"/>
<path d="M974.413 2.79822L1622.36 378.488" stroke="#2E1865"/>
<path d="M984.099 2.96771L1708 386.5" stroke="#2E1865"/>
<path d="M995.185 3.11169L1584.36 297.34" stroke="#2E1865"/>
<path d="M1004.31 2.97778L1689.05 321.94" stroke="#2E1865"/>
<path d="M683.378 1.27222L1004.68 3.0749" stroke="#2E1865"/>
<path d="M204.78 223.958L1490.52 229.537" stroke="#2E1865"/>
<path d="M1426.21 199.617L263.925 195.032" stroke="#2E1865"/>
<path d="M321.314 168.831L1375.67 175.569" stroke="#2E1865"/>
<path d="M364.495 150.244L1333.97 154.76" stroke="#2E1865"/>
<path d="M400.65 132.902L1293.48 137.209" stroke="#2E1865"/>
<path d="M429.306 118.712L1260.45 122.407" stroke="#2E1865"/>
<path d="M1232.61 109.301L456.824 107.365" stroke="#2E1865"/>
<path d="M1209.49 98.3179L481.049 95.5019" stroke="#2E1865"/>
<path d="M1187.6 88.8856L503.687 85.7342" stroke="#2E1865"/>
<path d="M1169 78.8639H516.116" stroke="#2E1865"/>
<path d="M1150.7 71.1424H531.207" stroke="#2E1865"/>
<path d="M1136.3 63.4755H546.688" stroke="#2E1865"/>
<path d="M1122.04 57.4977H561.428" stroke="#2E1865"/>
<path d="M1108.71 52.0744L579.031 49.0233" stroke="#2E1865"/>
<path d="M1097.68 46.7033L592.064 42.9538" stroke="#2E1865"/>
<path d="M1087.77 41.7816L603.213 37.9773" stroke="#2E1865"/>
<path d="M1077.46 36.9525L612.143 33.6489" stroke="#2E1865"/>
<path d="M1067.91 32.6693L620.144 30.0374" stroke="#2E1865"/>
<path d="M1059.77 28.7447L628.188 26.1761" stroke="#2E1865"/>
<path d="M637.991 22.1829L1052.33 25.3001" stroke="#2E1865"/>
<path d="M1044.29 21.8115L644.153 18.6555" stroke="#2E1865"/>
<path d="M653.168 14.7533L1038.03 18.2867" stroke="#2E1865"/>
<path d="M1030.11 14.7533L661.242 11.0049" stroke="#2E1865"/>
<path d="M668.316 8.26166L1022.82 11.6431" stroke="#2E1865"/>
<path d="M1015.81 8.58776L675.19 5.19476" stroke="#2E1865"/>
<path d="M679.699 2.7182L1009.55 5.42263" stroke="#2E1865"/>
<path d="M128 329.714L1568 337.672" stroke="#2E1865"/>
<path d="M113.5 383.5L1574 389.958" stroke="#2E1865"/>
<path d="M1568 288.392L128 283.495" stroke="#2E1865"/>
</svg>
