<svg width="1401" height="585" viewBox="0 0 1401 585" fill="none" xmlns="http://www.w3.org/2000/svg"><path opacity=".523" d="M1138 274c.55 0 1-.448 1-1s-.45-1-1-1-1 .448-1 1 .45 1 1 1z" fill="#FEFEFE"/><path d="M1002 405c.55 0 1-.448 1-1s-.45-1-1-1-1 .448-1 1 .45 1 1 1zm66 85c.55 0 1-.448 1-1s-.45-1-1-1-1 .448-1 1 .45 1 1 1z" fill="#FEFEFE"/><path opacity=".183" d="M1350.5 297c1.38 0 2.5-.672 2.5-1.5s-1.12-1.5-2.5-1.5-2.5.672-2.5 1.5 1.12 1.5 2.5 1.5z" fill="#FEFEFE"/><path d="M1042 295c.55 0 1-.448 1-1s-.45-1-1-1-1 .448-1 1 .45 1 1 1zm320.5-143c.83 0 1.5-.448 1.5-1s-.67-1-1.5-1-1.5.448-1.5 1 .67 1 1.5 1zm-59.5 75c.55 0 1-.448 1-1s-.45-1-1-1-1 .448-1 1 .45 1 1 1zm-159-114c.55 0 1-.448 1-1s-.45-1-1-1-1 .448-1 1 .45 1 1 1z" fill="#FEFEFE"/><path opacity=".284" d="M1160 60c.55 0 1-.448 1-1s-.45-1-1-1-1 .448-1 1 .45 1 1 1z" fill="#FEFEFE"/><path d="M1317 61c.55 0 1-.448 1-1s-.45-1-1-1-1 .448-1 1 .45 1 1 1zm-91.5 94c1.38 0 2.5-.672 2.5-1.5s-1.12-1.5-2.5-1.5-2.5.672-2.5 1.5 1.12 1.5 2.5 1.5z" fill="#FEFEFE"/><path opacity=".523" d="M1378 575c.55 0 1-.448 1-1s-.45-1-1-1-1 .448-1 1 .45 1 1 1z" fill="#FEFEFE"/><path d="M1326 491c.55 0 1-.448 1-1s-.45-1-1-1-1 .448-1 1 .45 1 1 1z" fill="#FEFEFE"/><path opacity=".329" d="M1276.5 373c.83 0 1.5-.448 1.5-1s-.67-1-1.5-1-1.5.448-1.5 1 .67 1 1.5 1z" fill="#FEFEFE"/><path d="M1384 414c.55 0 1-.448 1-1s-.45-1-1-1-1 .448-1 1 .45 1 1 1z" fill="#FEFEFE"/><path opacity=".284" d="M1400 361c.55 0 1-.448 1-1s-.45-1-1-1-1 .448-1 1 .45 1 1 1z" fill="#FEFEFE"/><path d="M1204.5 393c1.38 0 2.5-.672 2.5-1.5s-1.12-1.5-2.5-1.5-2.5.672-2.5 1.5 1.12 1.5 2.5 1.5z" fill="#FEFEFE"/><path opacity=".284" d="M1000 174c.55 0 1-.448 1-1s-.45-1-1-1a1 1 0 0 0 0 2z" fill="#FEFEFE"/><path d="M1086 190c.55 0 1-.448 1-1s-.45-1-1-1-1 .448-1 1 .45 1 1 1z" fill="#FEFEFE"/><path opacity=".329" d="M1036.5 72c.83 0 1.5-.448 1.5-1s-.67-1-1.5-1-1.5.448-1.5 1 .67 1 1.5 1z" fill="#FEFEFE"/><path d="M694 176a1 1 0 1 0 0-2 1 1 0 0 0 0 2z" fill="#FEFEFE"/><path opacity=".329" d="M644.5 58c.828 0 1.5-.448 1.5-1s-.672-1-1.5-1-1.5.448-1.5 1 .672 1 1.5 1z" fill="#FEFEFE"/><path d="M970.5 138c.828 0 1.5-.448 1.5-1s-.672-1-1.5-1-1.5.448-1.5 1 .672 1 1.5 1z" fill="#FEFEFE"/><path opacity=".284" d="M768 46a1 1 0 1 0 0-2 1 1 0 0 0 0 2z" fill="#FEFEFE"/><path d="M925 47a1 1 0 1 0 0-2 1 1 0 0 0 0 2zm-81.5 60c1.381 0 2.5-.672 2.5-1.5s-1.119-1.5-2.5-1.5-2.5.672-2.5 1.5 1.119 1.5 2.5 1.5zm-296 4c.828 0 1.5-.448 1.5-1s-.672-1-1.5-1-1.5.448-1.5 1 .672 1 1.5 1zM453 43a1 1 0 1 0 0-2 1 1 0 0 0 0 2z" fill="#FEFEFE"/><path opacity=".523" d="M110 259a1 1 0 1 0 0-2 1 1 0 0 0 0 2z" fill="#FEFEFE"/><path d="M58 175a1 1 0 1 0 0-2 1 1 0 0 0 0 2z" fill="#FEFEFE"/><path opacity=".329" d="M8.5 57c.828 0 1.5-.448 1.5-1s-.672-1-1.5-1-1.5.448-1.5 1 .672 1 1.5 1z" fill="#FEFEFE"/><path d="M334.5 137c.828 0 1.5-.448 1.5-1s-.672-1-1.5-1-1.5.448-1.5 1 .672 1 1.5 1zM232 217a1 1 0 1 0 0-2 1 1 0 0 0 0 2zM116 98a1 1 0 1 0 0-2 1 1 0 0 0 0 2z" fill="#FEFEFE"/><path opacity=".284" d="M132 45a1 1 0 1 0 0-2 1 1 0 0 0 0 2z" fill="#FEFEFE"/><path d="M298 63a1 1 0 1 0 0-2 1 1 0 0 0 0 2zM61.5 325c1.38 0 2.5-.672 2.5-1.5s-1.12-1.5-2.5-1.5-2.5.672-2.5 1.5 1.12 1.5 2.5 1.5z" fill="#FEFEFE"/><path opacity=".523" d="M103 585a1 1 0 1 0 0-2 1 1 0 0 0 0 2z" fill="#FEFEFE"/><path d="M51 501a1 1 0 1 0 0-2 1 1 0 0 0 0 2zM83 2a1 1 0 1 0 0-2 1 1 0 0 0 0 2zm26 422a1 1 0 1 0 0-2 1 1 0 0 0 0 2z" fill="#FEFEFE"/><path opacity=".284" d="M125 371a1 1 0 1 0 0-2 1 1 0 0 0 0 2z" fill="#FEFEFE"/><path d="M190.5 466c1.381 0 2.5-.672 2.5-1.5s-1.119-1.5-2.5-1.5-2.5.672-2.5 1.5 1.119 1.5 2.5 1.5z" fill="#FEFEFE"/><path opacity=".329" d="M1.5 383c.828 0 1.5-.448 1.5-1s-.672-1-1.5-1-1.5.448-1.5 1 .672 1 1.5 1z" fill="#FEFEFE"/><path d="M894.5 260c.828 0 1.5-.448 1.5-1s-.672-1-1.5-1-1.5.448-1.5 1 .672 1 1.5 1zM835 335a1 1 0 1 0 0-2 1 1 0 0 0 0 2zm14-166a1 1 0 1 0 0-2 1 1 0 0 0 0 2zm-91.5 94c1.381 0 2.5-.672 2.5-1.5s-1.119-1.5-2.5-1.5-2.5.672-2.5 1.5 1.119 1.5 2.5 1.5z" fill="#FEFEFE"/></svg>