<svg width="303" height="68" viewBox="0 0 303 68" fill="none" xmlns="http://www.w3.org/2000/svg">
<mask id="mask0" mask-type="alpha" maskUnits="userSpaceOnUse" x="106" y="28" width="29" height="28">
<path fill-rule="evenodd" clip-rule="evenodd" d="M125.968 47.7611C127.435 46.2848 128.169 44.3812 128.169 42.0554C128.169 39.7615 127.427 37.8698 125.944 36.3732C124.459 34.8784 122.669 34.1301 120.568 34.1301C118.468 34.1301 116.684 34.8784 115.216 36.3732C113.75 37.8698 113.017 39.7615 113.017 42.0554C113.017 44.3812 113.75 46.2848 115.216 47.7611C116.684 49.2421 118.468 49.9802 120.568 49.9802C122.701 49.9802 124.501 49.2421 125.968 47.7611ZM120.568 28.7483C124.501 28.7483 127.819 30.003 130.52 32.5101C133.219 35.0196 134.569 38.2008 134.569 42.0554C134.569 45.9101 133.227 49.0907 130.545 51.6002C127.86 54.1091 124.535 55.3638 120.568 55.3638C116.633 55.3638 113.325 54.1091 110.641 51.6002C107.957 49.0907 106.615 45.9101 106.615 42.0554C106.615 38.2008 107.957 35.0196 110.641 32.5101C113.325 30.003 116.633 28.7483 120.568 28.7483Z" fill="white"/>
</mask>
<g mask="url(#mask0)">
<path fill-rule="evenodd" clip-rule="evenodd" d="M106.562 55.4135H134.587V28.6902H106.562V55.4135Z" fill="white"/>
</g>
<mask id="mask1" mask-type="alpha" maskUnits="userSpaceOnUse" x="196" y="28" width="58" height="38">
<path fill-rule="evenodd" clip-rule="evenodd" d="M245.035 47.9107C246.268 46.4986 246.885 44.5805 246.885 42.156C246.885 39.7615 246.303 37.8356 245.135 36.3732C243.967 34.9125 242.435 34.1803 240.534 34.1803C238.734 34.1803 237.217 34.8544 235.983 36.1996C234.75 37.5453 234.133 39.5483 234.133 42.2045C234.133 44.3321 234.684 46.1681 235.784 47.7126C236.884 49.2577 238.434 50.0305 240.436 50.0305C242.267 50.0305 243.801 49.3247 245.035 47.9107ZM241.935 28.7483C245.368 28.7483 248.118 29.9767 250.187 32.4359C252.252 34.8945 253.286 38.102 253.286 42.0554C253.286 46.0424 252.186 49.2577 249.986 51.6983C247.786 54.1408 244.985 55.3638 241.585 55.3638C240.085 55.3638 238.725 55.0794 237.509 54.5149C236.29 53.9516 235.451 53.4027 234.983 52.8705L234.283 52.0234H234.184C234.251 52.6202 234.283 53.353 234.283 54.2156V64.7325H227.983V35.8248C227.983 35.0945 227.614 34.7293 226.882 34.7293H222.481C221.749 34.7293 221.266 35.028 221.033 35.6267L211.881 58.603C211.013 60.7953 209.762 62.4475 208.131 63.561C206.495 64.6744 204.68 65.2312 202.679 65.2312C201.478 65.2312 200.345 65.0151 199.279 64.5834C198.211 64.15 197.445 63.7184 196.978 63.2868L196.229 62.6391L198.677 58.1535C199.711 59.3172 200.927 59.8979 202.328 59.8979C204.229 59.8979 205.629 58.8191 206.53 56.6587L207.38 54.7143L196.075 29.3451H200.978C201.879 29.3451 202.579 29.5289 203.079 29.8941C203.579 30.2593 203.996 30.8747 204.33 31.7379L210.331 46.811L215.388 32.1569L215.532 31.7379C216.065 30.1449 217.197 29.3451 218.932 29.3451H230.533C232.666 29.3451 233.732 30.1605 233.732 31.7882V32.7843H233.833C233.9 32.6855 233.992 32.5449 234.108 32.3611C234.224 32.1797 234.515 31.8546 234.983 31.3889C235.451 30.9249 235.959 30.5179 236.509 30.1683C237.059 29.8199 237.825 29.4954 238.808 29.1961C239.792 28.898 240.834 28.7483 241.935 28.7483Z" fill="white"/>
</mask>
<g mask="url(#mask1)">
<path fill-rule="evenodd" clip-rule="evenodd" d="M196.054 65.2551H253.331V28.6902H196.054V65.2551Z" fill="white"/>
</g>
<mask id="mask2" mask-type="alpha" maskUnits="userSpaceOnUse" x="256" y="28" width="29" height="28">
<path fill-rule="evenodd" clip-rule="evenodd" d="M275.84 47.7611C277.308 46.2848 278.041 44.3812 278.041 42.0554C278.041 39.7615 277.3 37.8698 275.816 36.3732C274.332 34.8784 272.54 34.1301 270.441 34.1301C268.34 34.1301 266.555 34.8784 265.09 36.3732C263.623 37.8698 262.888 39.7615 262.888 42.0554C262.888 44.3812 263.623 46.2848 265.09 47.7611C266.555 49.2421 268.34 49.9802 270.441 49.9802C272.574 49.9802 274.373 49.2421 275.84 47.7611ZM270.441 28.7483C274.373 28.7483 277.69 30.003 280.392 32.5101C283.092 35.0196 284.442 38.2008 284.442 42.0554C284.442 45.9101 283.1 49.0907 280.416 51.6002C277.733 54.1091 274.408 55.3638 270.441 55.3638C266.506 55.3638 263.198 54.1091 260.514 51.6002C257.83 49.0907 256.488 45.9101 256.488 42.0554C256.488 38.2008 257.83 35.0196 260.514 32.5101C263.198 30.003 266.506 28.7483 270.441 28.7483Z" fill="white"/>
</mask>
<g mask="url(#mask2)">
<path fill-rule="evenodd" clip-rule="evenodd" d="M256.437 55.4135H284.461V28.6902H256.437V55.4135Z" fill="white"/>
</g>
<mask id="mask3" mask-type="alpha" maskUnits="userSpaceOnUse" x="286" y="22" width="17" height="34">
<path fill-rule="evenodd" clip-rule="evenodd" d="M301.693 49.4314L302.842 49.3326V54.8634C302.311 54.964 301.659 55.0149 300.893 55.0149C300.025 55.0149 299.194 54.9562 298.392 54.8389C297.593 54.7245 296.676 54.4659 295.642 54.0666C294.608 53.6673 293.717 53.1447 292.966 52.4976C292.217 51.8499 291.582 50.9202 291.066 49.7055C290.55 48.4939 290.291 47.0733 290.291 45.4444V34.3804H286.99V29.3452H290.441V22.4189H296.642V29.3452H302.444V34.3804H296.642V44.647C296.642 46.4747 297.168 47.7294 298.218 48.4107C299.269 49.0907 300.426 49.4314 301.693 49.4314Z" fill="white"/>
</mask>
<g mask="url(#mask3)">
<path fill-rule="evenodd" clip-rule="evenodd" d="M286.99 55.0544H302.88V22.3687H286.99V55.0544Z" fill="white"/>
</g>
<mask id="mask4" mask-type="alpha" maskUnits="userSpaceOnUse" x="72" y="19" width="30" height="36">
<path fill-rule="evenodd" clip-rule="evenodd" d="M95.1448 22.7679C95.1448 20.5086 96.2776 19.3772 98.5456 19.3772H101.696V54.7646H95.1448V39.9129H79.4917V54.7646H72.9412V19.3772H76.0915C77.2923 19.3772 78.1585 19.6514 78.6924 20.2003C79.225 20.7493 79.4917 21.6041 79.4917 22.7679V34.3803H95.1448V22.7679Z" fill="white"/>
</mask>
<g mask="url(#mask4)">
<path fill-rule="evenodd" clip-rule="evenodd" d="M72.9038 54.7671H101.723V19.3516H72.9038V54.7671Z" fill="white"/>
</g>
<mask id="mask5" mask-type="alpha" maskUnits="userSpaceOnUse" x="169" y="28" width="26" height="28">
<path fill-rule="evenodd" clip-rule="evenodd" d="M176.627 38.7653H187.677C187.644 37.2705 187.169 36.0421 186.253 35.0783C185.335 34.1139 184.21 33.632 182.877 33.632C181.243 33.632 179.883 34.0894 178.801 35.0035C177.717 35.9176 176.993 37.1723 176.627 38.7653ZM182.877 28.7483C186.41 28.7483 189.179 29.8863 191.176 32.1617C193.181 34.439 194.18 37.3214 194.18 40.8085L194.031 43.1522H176.426C176.659 45.3132 177.493 46.9888 178.927 48.1843C180.359 49.381 182.077 49.9802 184.077 49.9802C185.278 49.9802 186.478 49.7402 187.677 49.2577C188.878 48.7758 189.76 48.3023 190.326 47.8359L191.229 47.1379L193.877 51.5253C193.78 51.6247 193.63 51.7672 193.427 51.9486C193.229 52.1323 192.788 52.4388 192.104 52.8705C191.42 53.3021 190.711 53.6858 189.979 54.0163C189.244 54.3491 188.303 54.6574 187.153 54.9382C186.003 55.2207 184.827 55.3638 183.627 55.3638C179.527 55.3638 176.217 54.0749 173.701 51.5014C171.184 48.9248 169.924 45.7766 169.924 42.0554C169.924 38.1356 171.125 34.937 173.526 32.4617C175.927 29.9869 179.043 28.7483 182.877 28.7483Z" fill="white"/>
</mask>
<g mask="url(#mask5)">
<path fill-rule="evenodd" clip-rule="evenodd" d="M169.907 55.4135H194.248V28.6902H169.907V55.4135Z" fill="white"/>
</g>
<mask id="mask6" mask-type="alpha" maskUnits="userSpaceOnUse" x="140" y="28" width="25" height="27">
<path fill-rule="evenodd" clip-rule="evenodd" d="M155.423 28.7483C161.357 28.7483 164.325 31.972 164.325 38.4157V54.7646H161.374C160.173 54.7646 159.306 54.4982 158.773 53.9684C158.24 53.435 157.974 52.5723 157.974 51.3757V39.713C157.974 38.0194 157.681 36.73 157.098 35.8505C156.515 34.9711 155.473 34.5294 153.973 34.5294C152.305 34.5294 150.864 35.0035 149.647 35.9493C148.429 36.8976 147.588 38.1523 147.122 39.713C146.788 40.7097 146.622 41.8393 146.622 43.1019V54.7646H140.321V29.3451H143.071C145.304 29.3451 146.421 30.294 146.421 32.1875V32.934L146.322 34.0313H146.421C147.122 32.6353 148.221 31.4074 149.721 30.3419C151.222 29.2793 153.123 28.7483 155.423 28.7483Z" fill="white"/>
</mask>
<g mask="url(#mask6)">
<path fill-rule="evenodd" clip-rule="evenodd" d="M140.293 54.7672H164.345V28.6904H140.293V54.7672Z" fill="white"/>
</g>
<path fill-rule="evenodd" clip-rule="evenodd" d="M55.3262 38.6084C55.0037 34.069 53.9332 29.7358 52.2468 25.7113C51.8002 24.6452 51.3255 23.5934 50.7939 22.5736C52.6777 21.4813 53.9449 19.4772 53.9449 17.1786C53.9449 13.7143 51.0759 10.906 47.5368 10.906H8.44749C4.90837 10.906 2.03961 13.7143 2.03961 17.1786C2.03961 19.4754 3.30457 21.4782 5.18611 22.571C4.65445 23.5905 4.1799 24.6419 3.73333 25.7077C2.04627 29.733 0.975128 34.0674 0.652603 38.6079C0.62796 39.148 0.601318 39.6878 0.601318 40.234C0.601318 44.1579 1.25336 47.9306 2.44039 51.4655C2.79439 52.4605 3.47507 54.174 4.30911 55.3182C4.40019 55.4357 4.48611 55.5503 4.58984 55.6736C4.60233 55.688 4.61432 55.704 4.62664 55.718C4.99662 56.1533 5.44502 56.6193 5.98468 57.0815C6.52932 57.5443 7.16005 58.0066 7.87803 58.3934C8.58752 58.7779 9.41557 59.0887 10.2326 59.1917C11.0875 59.3117 11.9896 59.1681 12.6783 58.6951C13.3803 58.2335 13.8821 57.4261 14.1727 56.513C14.7523 54.6633 14.688 52.5676 14.5105 50.672C14.3166 48.761 13.9627 46.9851 13.6114 45.4762C12.8986 42.4558 12.1989 40.4948 12.1989 40.4948C12.1989 40.4948 13.0346 42.4014 13.9644 45.3842C14.4241 46.8764 14.9073 48.6384 15.2437 50.5765C15.5544 52.511 15.805 54.6419 15.2986 56.8201C15.0385 57.8901 14.4964 59.019 13.5093 59.7817C12.5213 60.5574 11.2859 60.7973 10.1765 60.8237C9.00862 60.8315 7.97178 60.5708 7.03134 60.2202C6.91679 60.1768 6.81905 60.1211 6.70782 60.0751C8.42734 62.6133 10.4751 64.915 12.7774 66.9472C14.0057 67.6081 16.0069 68.0964 18.6577 66.7491C23.2797 64.4 27.9017 64.1389 27.9017 64.1389C27.9017 64.1389 32.5237 64.4 37.1457 66.7491C40.2514 68.3275 42.4657 67.3879 43.5878 66.6013C45.7254 64.6591 47.6371 62.4834 49.2567 60.0963C49.1528 60.139 49.062 60.1912 48.9555 60.2314C48.015 60.582 46.9782 60.843 45.8103 60.835C44.7009 60.8086 43.4655 60.5686 42.4775 59.793C41.4904 59.0302 40.9484 57.9015 40.6884 56.8313C40.182 54.6532 40.4324 52.5223 40.7433 50.5879C41.0795 48.6499 41.5627 46.8878 42.0224 45.3955C42.9524 42.4126 43.7879 40.506 43.7879 40.506C43.7879 40.506 43.0884 42.4671 42.3754 45.4874C42.0243 46.9963 41.6704 48.7723 41.4763 50.6833C41.2989 52.5788 41.2347 54.6747 41.8141 56.5243C42.1047 57.4373 42.6065 58.2449 43.3085 58.7064C43.9974 59.1795 44.8993 59.3229 45.7544 59.203C46.5712 59.1 47.3993 58.7893 48.1089 58.4047C48.8269 58.0179 49.4576 57.5555 50.0021 57.0928C50.7353 56.4648 51.2901 55.836 51.7163 55.2808C52.3812 54.3552 52.9462 53.0763 53.3236 52.0974C54.6504 48.3827 55.3773 44.3923 55.3773 40.234C55.3773 39.688 55.3509 39.1483 55.3262 38.6084Z" fill="white" fill-opacity="0.5"/>
<path fill-rule="evenodd" clip-rule="evenodd" d="M22.2433 21.6594C22.2433 24.8206 19.6253 27.3834 16.3957 27.3834C13.1663 27.3834 10.5481 24.8206 10.5481 21.6594C10.5481 18.4981 13.1663 15.9353 16.3957 15.9353C19.6253 15.9353 22.2433 18.4981 22.2433 21.6594Z" fill="white"/>
<path fill-rule="evenodd" clip-rule="evenodd" d="M18.998 21.6594C18.998 23.0661 17.8329 24.2066 16.3956 24.2066C14.9585 24.2066 13.7935 23.0661 13.7935 21.6594C13.7935 20.2525 14.9585 19.1121 16.3956 19.1121C17.8329 19.1121 18.998 20.2525 18.998 21.6594Z" fill="black"/>
<path fill-rule="evenodd" clip-rule="evenodd" d="M8.44743 14.0317C6.67196 14.0317 5.23267 15.4406 5.23267 17.1785C5.23267 18.3058 5.84308 19.2869 6.75305 19.8427C7.86548 18.0543 9.10697 16.3519 10.4725 14.7531C9.91836 14.3091 9.21936 14.0317 8.44743 14.0317Z" fill="white"/>
<path fill-rule="evenodd" clip-rule="evenodd" d="M47.5368 14.0317C46.7632 14.0317 46.0632 14.3101 45.5085 14.7557C46.8737 16.3543 48.1147 18.0567 49.227 19.8449C50.1391 19.2897 50.7515 18.3074 50.7515 17.1785C50.7515 15.4406 49.3122 14.0317 47.5368 14.0317Z" fill="white"/>
<path fill-rule="evenodd" clip-rule="evenodd" d="M16.0336 19.8143C16.0336 20.5867 15.3941 21.2127 14.6051 21.2127C13.8161 21.2127 13.1765 20.5867 13.1765 19.8143C13.1765 19.0421 13.8161 18.416 14.6051 18.416C15.3941 18.416 16.0336 19.0421 16.0336 19.8143Z" fill="white"/>
<path fill-rule="evenodd" clip-rule="evenodd" d="M45.4305 21.6594C45.4305 24.8206 42.8125 27.3834 39.5829 27.3834C36.3534 27.3834 33.7354 24.8206 33.7354 21.6594C33.7354 18.4981 36.3534 15.9353 39.5829 15.9353C42.8125 15.9353 45.4305 18.4981 45.4305 21.6594Z" fill="white"/>
<path fill-rule="evenodd" clip-rule="evenodd" d="M42.185 21.6594C42.185 23.0661 41.0199 24.2066 39.5828 24.2066C38.1455 24.2066 36.9805 23.0661 36.9805 21.6594C36.9805 20.2525 38.1455 19.1121 39.5828 19.1121C41.0199 19.1121 42.185 20.2525 42.185 21.6594Z" fill="black"/>
<path fill-rule="evenodd" clip-rule="evenodd" d="M39.2209 19.8143C39.2209 20.5867 38.5812 21.2127 37.7922 21.2127C37.0033 21.2127 36.3638 20.5867 36.3638 19.8143C36.3638 19.0421 37.0033 18.416 37.7922 18.416C38.5812 18.416 39.2209 19.0421 39.2209 19.8143Z" fill="white"/>
<path fill-rule="evenodd" clip-rule="evenodd" d="M35.8524 32.712C35.8524 37.0102 32.2928 40.4947 27.9017 40.4947C23.5105 40.4947 19.9509 37.0102 19.9509 32.712C19.9509 28.4137 23.5105 24.9292 27.9017 24.9292C32.2928 24.9292 35.8524 28.4137 35.8524 32.712Z" fill="white"/>
<path fill-rule="evenodd" clip-rule="evenodd" d="M27.3857 40.4693C27.5571 40.4802 27.7272 40.4948 27.9014 40.4948C28.0757 40.4948 28.2461 40.4802 28.4176 40.4693V30.3538H27.3857V40.4693Z" fill="black"/>
<path fill-rule="evenodd" clip-rule="evenodd" d="M32.0269 28.4624C32.0269 28.3549 32.0061 28.2532 31.9764 28.155C31.9635 28.107 31.953 28.0786 31.953 28.0786H31.9521C31.915 27.9826 31.8646 27.8943 31.8028 27.8136L31.8031 27.8126C31.8031 27.8126 31.3361 26.87 27.9488 26.8611V26.8601C27.9406 26.8601 27.9336 26.8606 27.9253 26.8606C27.9172 26.8606 27.91 26.8601 27.9018 26.8601V26.8611C25.9311 26.8663 24.9512 27.1866 24.4749 27.4547C24.1874 27.5676 23.9614 27.7945 23.8515 28.0786H23.8499C23.8499 28.0786 23.8376 28.1119 23.8232 28.1678C23.7959 28.2621 23.7766 28.3596 23.7766 28.4624C23.7766 28.4717 23.7791 28.4804 23.7794 28.4895C23.7593 28.9785 23.9231 29.8395 25.0559 30.7229C26.1703 31.592 27.0263 31.8756 27.4969 31.9696C27.5327 31.9776 27.5693 31.9825 27.6058 31.9883C27.7909 32.0177 27.901 32.0175 27.901 32.0175H27.9018C27.9018 32.0175 28.0114 32.0175 28.1959 31.9885C28.2334 31.9825 28.271 31.9776 28.3078 31.9693C28.7787 31.8749 29.634 31.5907 30.747 30.7229C31.875 29.8431 32.042 28.9855 32.0236 28.4955C32.0239 28.4843 32.0269 28.4738 32.0269 28.4624Z" fill="black"/>
<path d="M14.6614 9.12343H40.6553C37.569 7.15935 33.8654 5.82885 29.956 5.51206L31.5334 1.52054C31.5334 1.52054 30.5047 0.760254 27.6926 0.760254C24.8806 0.760254 23.8519 1.52054 23.8519 1.52054L25.4293 5.51206C21.3828 5.82885 17.7477 7.15935 14.6614 9.12343Z" fill="white" fill-opacity="0.5"/>
</svg>
