<svg height="69" viewBox="0 0 90 69" width="90" xmlns="http://www.w3.org/2000/svg"><path d="M11.564 7.704c.468-.828 1.692-3.024 1.8-3.312.18-.468.432-.54.828-.54.18 0 1.08 0 1.512.432.288.288.396.792.396 1.224 0 1.044-1.116 2.124-1.872 3.384L12.032 12.6c-.216.36-.684.648-1.224.648-.504 0-.936-.216-1.152-.252-.324-.036-.54-.504-.54-.72s.036-.36.216-.684zM6.776 6.552c.396-.72 1.08-2.124 1.44-2.988.216-.504.504-.756.972-.756.324 0 .72.036 1.26.72.216.288.612.54.612.864 0 .288 0 .432-.108.576a43.971 43.971 0 0 0-1.8 3.06L7.28 11.556c-.216.396-.972.72-1.296.72-.252 0-.468-.072-.72-.144s-.468-.108-.684-.108c-.252 0-.576-.576-.576-.792s.144-.18.468-.72c.792-1.332 1.584-2.664 2.304-3.96zm18.216-2.124c.216.216.252.54.252.756 0 .108-.072.252-.252.54a45.064 45.064 0 0 0-3.996 7.308c0 .144 0 .18.252.18.144 0 .36-.036.756-.18.36-.144.288 0 1.008-.36 4.824-2.376 8.568-5.184 11.448-8.64.18-.216.216-.216.36-.216.648 0 1.404.288 1.872.684.18.144.396.108.504.216s.216.252.216.396c0 .072 0 .144-.324.54-2.484 3.024-5.436 5.364-8.46 7.164-1.692 1.008-3.456 1.872-5.364 2.844-.432.216-.504.324-.504.648 0 .288.108.612.288.972.396.828.324 1.08.612 1.692 1.008 2.052 3.564 5.724 5.94 8.1.504.504.684.684 1.044.864.936.468 1.512.936 1.512 1.512 0 .432-.252.648-.54.684-.648.072-.288.252-.972.252-1.8 0-3.312-1.44-4.104-2.376-.828-.972-1.728-1.872-2.412-2.736-2.268-2.88-3.708-6.228-4.356-8.352-.036-.144-.072-.18-.144-.18-.108 0-.144.072-.18.144-1.548 3.06-2.844 6.336-3.42 9.72-.036.252-.072.36-.684.756-.288.18-.432.216-.648.216-.36 0-.324-.36-.936-.612-.648-.252-1.044-.432-1.044-.864 0-.216 0-.468.18-1.044 2.376-7.596 6.048-15.48 8.388-19.908.324-.612.36-.576.504-.684.36-.252.756-.9 1.368-.9.108 0 .252 0 .396.072.288.144.144.252.576.432.252.108.648.144.864.36zm8.676 12.996c1.08-2.484 1.908-4.212 3.492-6.624.288-.432.252-.504.576-.792.288-.252.72-.36 1.26-.36.828 0 1.296.216 1.44.54.072.18.18.468.18.648 0 .396-.18 1.044-.792 1.692a16.663 16.663 0 0 0-2.304 3.24c-.504.936-1.368 2.664-2.556 5.616-.252.648-.72 2.412-.72 2.52 0 .144 0 .36.108.36.216 0 .36-.108.612-.468 4.86-6.912 7.524-8.352 8.316-10.044.648-1.368.792-1.476 1.26-1.476.54 0 .72.324 1.296.36.396.036.72.54.72.972 0 .144-.18.648-.36.936-1.296 2.124-1.98 3.492-2.52 5.328-.216.72-.432 2.52-.432 3.24 0 .648.216 1.188.288 1.548.108.648 1.008 1.116 1.26 1.296.288.216.54.468.54.828 0 .252-.252.864-.936.864-.288 0-1.44-.108-1.872-.504-.504-.468-.936-.612-1.404-1.26-.432-.576-.612-1.332-.612-2.232 0-2.124.324-2.736.324-2.844 0-.072-.036-.144-.108-.144s-.108 0-.216.144c-1.476 1.944-2.448 3.168-3.312 4.392-.756 1.08-1.044 1.044-1.548 1.584-.288.324-1.008.396-1.332.396-.432 0-2.124-1.08-2.592-1.656-.144-.18-.252-.648-.252-1.044 0-1.116.324-1.368.432-2.16.144-1.044 1.152-3.492 1.764-4.896zm24.228-6.984c.324.9.792 1.98 1.836 1.98 1.44 0 2.268-.108 3.096-.108 1.152 0 2.232.36 2.232.936 0 .468-.9.576-1.008.756-.072.144-.144.18-.396.216-.72.108-1.764.468-2.7.612-.72.108-1.152.108-1.404.108-.288 0-.36.036-.432.288-.936 3.852-2.232 7.2-4.536 9.648-1.008 1.08-1.98 2.124-3.24 2.124-.324 0-.648-.072-.864-.18-1.368-.648-2.376-1.44-2.7-2.268-.396-1.008-.54-2.088-.54-2.988 0-2.952 1.476-5.544 3.132-8.028.504-.756.504-.576.864-1.08 1.152-1.62 2.664-3.312 4.248-3.312.576 0 1.296.144 1.908.684.288.252.396.324.504.612zm-1.836 2.376a1.138 1.138 0 0 1-.288-.54c-.108-.36-.216-.612-.36-.612s-.36.144-.54.36c-.144.18-.504.36-.684.612-1.116 1.404-4.5 5.868-4.5 10.08 0 .108 0 .252.108.504.108.288.54.972.864 1.188.108.072.216.072.324.072.36 0 .54-.216.684-.288.252-.108.324-.216.612-.648 2.088-3.132 4.032-5.94 4.032-9.576 0-.144 0-.576-.036-.756-.036-.252-.108-.288-.216-.396zm12.492 9.756c1.584-1.188 3.384-2.448 4.392-2.448.504 0 1.188.828 1.188.936 0 .144-.144.216-.144.36 0 .216-.036.324-.288.432-1.116.468-2.412 1.476-3.96 2.736-2.016 1.62-3.816 2.664-5.328 2.664-1.98 0-3.456-1.404-3.636-1.764-.288-.576-.432-1.116-.432-1.692 0-.864.324-1.8.576-2.7.072-.252.18-.9.432-1.404 1.872-3.744 4.464-8.136 7.488-9.648.216-.108.288-.108.576-.108 1.224 0 2.808.576 3.744 1.512.144.144.144.216.144.504 0 .396.072.432.072.54 0 .072 0 .108-.036.252-.108.432-1.224 2.124-1.224 3.384 0 .288-.216.54-.684.54a1.1 1.1 0 0 1-.72-.252l-.936-.684a.954.954 0 0 1-.396-.792c0-.72.792-1.584.792-2.16 0-.144-.108-.36-.288-.36-.216 0-.288.072-.576.36-1.512 1.512-3.168 3.636-4.392 5.796-1.26 2.232-2.088 4.608-2.088 5.508 0 .468.288.756.612.756 1.656 0 3.348-.936 5.112-2.268zm16.38-20.7c0 1.044-.504 1.728-1.08 2.52-.684.936-.72 1.116-.9 1.404-1.692 2.772-2.628 5.796-3.888 8.712-.072.144-.108.252-.108.324s.036.108.108.108c.108 0 .252-.072.432-.18 2.304-1.404 4.644-3.06 6.12-5.4.252-.396.468-.576.72-.756.36-.252.756-.36 1.08-.36s.504.036.972.324.648.504.648.648c0 .54-.9 1.8-1.62 2.412-.576.504-.576.72-1.008 1.08-1.836 1.548-3.852 2.88-5.76 4.14a.522.522 0 0 0-.252.468c0 .252.18.612.756 2.484.216.684 1.656 3.672 1.98 4.104 1.044 1.44 1.368 1.836 2.952 2.484.432.18.756-.144.756.54 0 .468-.612.684-.756.9-.18.288-.396.396-.864.396-1.368 0-2.196-.468-2.772-1.044-.324-.324-.504-.504-.648-.612-.216-.18-.468-.36-.684-.72-2.052-3.744-2.736-6.408-3.204-7.488-.108-.252-.216-.288-.288-.288-.036 0-.108.036-.144.144-.792 1.908-1.62 4.068-2.016 6.3-.144.756-.468 2.484-1.224 2.484-.288 0-.504.108-.9.108-.18 0-1.26-.072-1.26-1.152 0-.252.108-.72.252-1.08.072-.18.108-.396.144-.504C74.888 16.92 78.344 9.684 81.44 2.34l.396-.936c.18-.468.396-.684.576-.684.288 0 .324.036 1.188.144s1.332.504 1.332 1.008zm-72.18 40.556c.216.216.252.54.252.756 0 .108-.072.252-.252.54a45.064 45.064 0 0 0-3.996 7.308c0 .144 0 .18.252.18.144 0 .36-.036.756-.18.36-.144.288 0 1.008-.36 4.824-2.376 8.568-5.184 11.448-8.64.18-.216.216-.216.36-.216.648 0 1.404.288 1.872.684.18.144.396.108.504.216s.216.252.216.396c0 .072 0 .144-.324.54-2.484 3.024-5.436 5.364-8.46 7.164-1.692 1.008-3.456 1.872-5.364 2.844-.432.216-.504.324-.504.648 0 .288.108.612.288.972.396.828.324 1.08.612 1.692 1.008 2.052 3.564 5.724 5.94 8.1.504.504.684.684 1.044.864.936.468 1.512.936 1.512 1.512 0 .432-.252.648-.54.684-.648.072-.288.252-.972.252-1.8 0-3.312-1.44-4.104-2.376-.828-.972-1.728-1.872-2.412-2.736-2.268-2.88-3.708-6.228-4.356-8.352-.036-.144-.072-.18-.144-.18-.108 0-.144.072-.18.144-1.548 3.06-2.844 6.336-3.42 9.72-.036.252-.072.36-.684.756-.288.18-.432.216-.648.216-.36 0-.324-.36-.936-.612-.648-.252-1.044-.432-1.044-.864 0-.216 0-.468.18-1.044 2.376-7.596 6.048-15.48 8.388-19.908.324-.612.36-.576.504-.684.36-.252.756-.9 1.368-.9.108 0 .252 0 .396.072.288.144.144.252.576.432.252.108.648.144.864.36zm8.676 12.996c1.08-2.484 1.908-4.212 3.492-6.624.288-.432.252-.504.576-.792.288-.252.72-.36 1.26-.36.828 0 1.296.216 1.44.54.072.18.18.468.18.648 0 .396-.18 1.044-.792 1.692a16.663 16.663 0 0 0-2.304 3.24c-.504.936-1.368 2.664-2.556 5.616-.252.648-.72 2.412-.72 2.52 0 .144 0 .36.108.36.216 0 .36-.108.612-.468 4.86-6.912 7.524-8.352 8.316-10.044.648-1.368.792-1.476 1.26-1.476.54 0 .72.324 1.296.36.396.036.72.54.72.972 0 .144-.18.648-.36.936-1.296 2.124-1.98 3.492-2.52 5.328-.216.72-.432 2.52-.432 3.24 0 .648.216 1.188.288 1.548.108.648 1.008 1.116 1.26 1.296.288.216.54.468.54.828 0 .252-.252.864-.936.864-.288 0-1.44-.108-1.872-.504-.504-.468-.936-.612-1.404-1.26-.432-.576-.612-1.332-.612-2.232 0-2.124.324-2.736.324-2.844 0-.072-.036-.144-.108-.144s-.108 0-.216.144c-1.476 1.944-2.448 3.168-3.312 4.392-.756 1.08-1.044 1.044-1.548 1.584-.288.324-1.008.396-1.332.396-.432 0-2.124-1.08-2.592-1.656-.144-.18-.252-.648-.252-1.044 0-1.116.324-1.368.432-2.16.144-1.044 1.152-3.492 1.764-4.896zm24.228-6.984c.324.9.792 1.98 1.836 1.98 1.44 0 2.268-.108 3.096-.108 1.152 0 2.232.36 2.232.936 0 .468-.9.576-1.008.756-.072.144-.144.18-.396.216-.72.108-1.764.468-2.7.612-.72.108-1.152.108-1.404.108-.288 0-.36.036-.432.288-.936 3.852-2.232 7.2-4.536 9.648-1.008 1.08-1.98 2.124-3.24 2.124-.324 0-.648-.072-.864-.18-1.368-.648-2.376-1.44-2.7-2.268-.396-1.008-.54-2.088-.54-2.988 0-2.952 1.476-5.544 3.132-8.028.504-.756.504-.576.864-1.08 1.152-1.62 2.664-3.312 4.248-3.312.576 0 1.296.144 1.908.684.288.252.396.324.504.612zm-1.836 2.376a1.138 1.138 0 0 1-.288-.54c-.108-.36-.216-.612-.36-.612s-.36.144-.54.36c-.144.18-.504.36-.684.612-1.116 1.404-4.5 5.868-4.5 10.08 0 .108 0 .252.108.504.108.288.54.972.864 1.188.108.072.216.072.324.072.36 0 .54-.216.684-.288.252-.108.324-.216.612-.648 2.088-3.132 4.032-5.94 4.032-9.576 0-.144 0-.576-.036-.756-.036-.252-.108-.288-.216-.396zm12.492 9.756c1.584-1.188 3.384-2.448 4.392-2.448.504 0 1.188.828 1.188.936 0 .144-.144.216-.144.36 0 .216-.036.324-.288.432-1.116.468-2.412 1.476-3.96 2.736-2.016 1.62-3.816 2.664-5.328 2.664-1.98 0-3.456-1.404-3.636-1.764-.288-.576-.432-1.116-.432-1.692 0-.864.324-1.8.576-2.7.072-.252.18-.9.432-1.404 1.872-3.744 4.464-8.136 7.488-9.648.216-.108.288-.108.576-.108 1.224 0 2.808.576 3.744 1.512.144.144.144.216.144.504 0 .396.072.432.072.54 0 .072 0 .108-.036.252-.108.432-1.224 2.124-1.224 3.384 0 .288-.216.54-.684.54a1.1 1.1 0 0 1-.72-.252l-.936-.684a.954.954 0 0 1-.396-.792c0-.72.792-1.584.792-2.16 0-.144-.108-.36-.288-.36-.216 0-.288.072-.576.36-1.512 1.512-3.168 3.636-4.392 5.796-1.26 2.232-2.088 4.608-2.088 5.508 0 .468.288.756.612.756 1.656 0 3.348-.936 5.112-2.268zm16.38-20.7c0 1.044-.504 1.728-1.08 2.52-.684.936-.72 1.116-.9 1.404-1.692 2.772-2.628 5.796-3.888 8.712-.072.144-.108.252-.108.324s.036.108.108.108c.108 0 .252-.072.432-.18 2.304-1.404 4.644-3.06 6.12-5.4.252-.396.468-.576.72-.756.36-.252.756-.36 1.08-.36s.504.036.972.324.648.504.648.648c0 .54-.9 1.8-1.62 2.412-.576.504-.576.72-1.008 1.08-1.836 1.548-3.852 2.88-5.76 4.14a.522.522 0 0 0-.252.468c0 .252.18.612.756 2.484.216.684 1.656 3.672 1.98 4.104 1.044 1.44 1.368 1.836 2.952 2.484.432.18.756-.144.756.54 0 .468-.612.684-.756.9-.18.288-.396.396-.864.396-1.368 0-2.196-.468-2.772-1.044-.324-.324-.504-.504-.648-.612-.216-.18-.468-.36-.684-.72-2.052-3.744-2.736-6.408-3.204-7.488-.108-.252-.216-.288-.288-.288-.036 0-.108.036-.144.144-.792 1.908-1.62 4.068-2.016 6.3C63.08 63.272 62.756 65 62 65c-.288 0-.504.108-.9.108-.18 0-1.26-.072-1.26-1.152 0-.252.108-.72.252-1.08.072-.18.108-.396.144-.504 2.412-7.452 5.868-14.688 8.964-22.032l.396-.936c.18-.468.396-.684.576-.684.288 0 .324.036 1.188.144s1.332.504 1.332 1.008zm12.384 5.832c.468-.828 1.692-3.024 1.8-3.312.18-.468.432-.54.828-.54.18 0 1.08 0 1.512.432.288.288.396.792.396 1.224 0 1.044-1.116 2.124-1.872 3.384L85.544 50.6c-.216.36-.684.648-1.224.648-.504 0-.936-.216-1.152-.252-.324-.036-.54-.504-.54-.72s.036-.36.216-.684zm-4.788-1.152c.396-.72 1.08-2.124 1.44-2.988.216-.504.504-.756.972-.756.324 0 .72.036 1.26.72.216.288.612.54.612.864 0 .288 0 .432-.108.576a43.971 43.971 0 0 0-1.8 3.06l-1.872 3.528c-.216.396-.972.72-1.296.72-.252 0-.468-.072-.72-.144s-.468-.108-.684-.108c-.252 0-.576-.576-.576-.792s.144-.18.468-.72c.792-1.332 1.584-2.664 2.304-3.96z" fill="#fff" fill-rule="evenodd" opacity=".477"/></svg>