<svg width="1716" height="379" viewBox="0 0 1716 379" fill="none" xmlns="http://www.w3.org/2000/svg"><path d="M647.204 1L1 300M652.216 1.4L33.538 310.227M660.034 1.425L33.285 337.273M669.971 1.498L45.5 363.5M679.766 1.53l-567.4 359.914M690.424 1.39L171.366 361.775M700.17 1.709L231.526 361.85M711.137 1.589L293.599 361.823M721.22 1.727L354.307 362.169M731.133 1.782L415.25 362.73M741.218 1.785L475.921 362.9M751.585 1.758L536.359 361.99M769.591 1.859L596.582 363.252M782.038 1.702L657.344 363.247M792.624 2.179L718.333 364.01m84.2-361.644L779.67 363.598m34.243-361.24l25.136 361.88M824.747 2.294l73.87 362.01M834.551 2.366L960.51 364.88M843.928 2.216l177.412 362.896M855.482 2.282l225.578 363.191M865.476 2.61L1140.86 365.9M876.352 2.253l326.428 363.221M885.872 2.46l379.158 364.882M896.412 2.686l431.378 363.348M905.665 2.714l480.545 364.315M916.6 2.791l532.11 364.73M927.569 2.861l574.121 364.696M937.413 2.798l647.947 375.689M948 2.504L1609.5 358M958.185 3.112L1547.36 297.34M967.308 2.978L1715.5 353M646.378 1.272l321.305 1.803M89.853 307.467l1439.997 7.959M75.352 361.253l1460.498 6.459m-6-101.567L89.852 261.249m77.928-37.291l1285.74 5.579m-64.31-29.92l-1162.285-4.585m57.389-26.201l1054.356 6.738M327.495 150.244l969.475 4.516m-933.32-21.858l892.83 4.307m-864.174-18.497l831.144 3.695m-27.84-13.106l-775.786-1.936m752.666-9.047l-728.441-2.816m706.551-6.616l-683.913-3.152M1132 78.864H479.116m634.584-7.722H494.207m605.093-7.666H509.688m575.352-5.978H524.428m547.282-5.423l-529.679-3.052m518.649-2.32l-505.616-3.75m495.706-1.171l-484.557-3.805m474.247-1.024l-465.317-3.304m455.767-.98l-447.766-2.632m439.626-1.292l-431.582-2.569m9.803-3.993L1015.33 25.3m-8.04-3.488l-400.137-3.157m9.015-3.902l384.862 3.534m-7.919-3.534l-368.869-3.748m7.074-2.743l354.503 3.381m-7.01-3.055L638.19 5.195m4.509-2.477l329.846 2.705" stroke="#2E1865"/></svg>