<svg width="228" height="90" viewBox="0 0 228 90" fill="none" xmlns="http://www.w3.org/2000/svg">
<path fill-rule="evenodd" clip-rule="evenodd" d="M145.361 60.293H139.319V38.0306H145.361V60.293ZM142.35 29.3091C140.159 29.3091 139.063 30.2977 139.063 32.2756C139.063 34.2668 140.159 35.2624 142.35 35.2624C143.446 35.2624 144.268 35.0009 144.816 34.4763C145.364 33.9518 145.638 33.2185 145.638 32.2756C145.638 30.2977 144.542 29.3091 142.35 29.3091ZM219.609 50.0577L221.946 49.9782V51.8099C221.946 53.1514 221.527 54.2265 220.688 55.0358C219.85 55.8458 218.73 56.2508 217.331 56.2508C215.377 56.2508 214.4 55.3944 214.4 53.6823C214.4 52.487 214.829 51.5982 215.687 51.0139C216.546 50.4296 217.853 50.1111 219.609 50.0577ZM222.56 57.2661L223.729 60.2931H227.948V45.4578C227.948 42.8028 227.155 40.8249 225.571 39.5242C223.986 38.2234 221.708 37.5723 218.737 37.5723C215.635 37.5723 212.809 38.2431 210.26 39.5839L212.26 43.6859C214.65 42.6102 216.73 42.073 218.5 42.073C220.797 42.073 221.946 43.2015 221.946 45.4578V46.4338L218.104 46.5533C214.789 46.6728 212.311 47.2937 210.666 48.4152C209.022 49.5374 208.201 51.2797 208.201 53.6422C208.201 55.8992 208.811 57.6381 210.032 58.8594C211.254 60.0807 212.927 60.691 215.054 60.691C216.783 60.691 218.186 60.4421 219.262 59.9443C220.338 59.4465 221.385 58.5542 222.402 57.2661H222.56ZM184.52 60.293H190.561V49.1217C190.561 46.812 190.928 45.1266 191.66 44.0642C192.394 43.0024 193.499 42.4709 194.978 42.4709C196.127 42.4709 196.968 42.8731 197.504 43.676C198.038 44.479 198.306 45.6842 198.306 47.2901V60.293H204.366V45.7763C204.366 42.9223 203.723 40.8481 202.435 39.5536C201.149 38.2599 199.25 37.6123 196.741 37.6123C195.288 37.6123 193.985 37.8978 192.829 38.4687C191.674 39.0396 190.799 39.8426 190.205 40.8783H189.67C188.495 38.7014 186.25 37.6123 182.936 37.6123C181.483 37.6123 180.196 37.9013 179.073 38.4785C177.951 39.0558 177.092 39.856 176.499 40.8783H176.162L175.35 38.0306H170.734V60.293H176.776V49.8192C176.776 47.2036 177.125 45.3256 177.825 44.1837C178.526 43.0418 179.648 42.4709 181.192 42.4709C182.341 42.4709 183.183 42.8731 183.718 43.676C184.252 44.479 184.52 45.6842 184.52 47.2901V60.293ZM166.629 53.682C166.629 55.9657 165.84 57.7046 164.262 58.8992C162.684 60.0938 160.324 60.6915 157.181 60.6915C155.57 60.6915 154.198 60.5818 153.062 60.3624C151.926 60.1437 150.863 59.8217 149.873 59.397V54.3788C150.995 54.9104 152.259 55.3547 153.666 55.7133C155.072 56.0712 156.31 56.2505 157.379 56.2505C159.571 56.2505 160.668 55.6135 160.668 54.3394C160.668 53.8613 160.522 53.4732 160.232 53.1743C159.941 52.8755 159.44 52.5373 158.726 52.1583C158.014 51.78 157.062 51.3392 155.874 50.8343C154.171 50.1179 152.919 49.4541 152.121 48.8431C151.322 48.2328 150.741 47.5325 150.378 46.7422C150.015 45.9525 149.833 44.9801 149.833 43.8249C149.833 41.847 150.595 40.3177 152.121 39.2356C153.646 38.1535 155.808 37.6128 158.607 37.6128C161.275 37.6128 163.87 38.1971 166.392 39.365L164.57 43.7454C163.46 43.2673 162.423 42.8764 161.459 42.5705C160.496 42.2654 159.512 42.1128 158.509 42.1128C156.726 42.1128 155.834 42.5972 155.834 43.5661C155.834 44.1111 156.122 44.5822 156.696 44.9801C157.271 45.3781 158.528 45.9694 160.469 46.7527C162.199 47.4565 163.467 48.1132 164.272 48.7236C165.077 49.3346 165.672 50.0377 166.055 50.8343C166.438 51.631 166.629 52.5802 166.629 53.682ZM134.074 37.6124C134.893 37.6124 135.573 37.6722 136.115 37.7917L135.659 43.4863C135.17 43.3541 134.577 43.2873 133.876 43.2873C131.948 43.2873 130.447 43.7852 129.37 44.7808C128.294 45.7764 127.756 47.1707 127.756 48.963V60.2931H121.715V38.0308H126.29L127.182 41.7742H127.478C128.165 40.5269 129.093 39.5207 130.262 38.7571C131.43 37.9942 132.701 37.6124 134.074 37.6124ZM105.954 44.8806H103.934V36.2384H106.727C108.404 36.2384 109.635 36.5837 110.421 37.2742C111.206 37.9646 111.599 39.0334 111.599 40.4797C111.599 41.9134 111.131 43.0053 110.193 43.7556C109.255 44.5058 107.843 44.8806 105.954 44.8806ZM114.876 47.4491C116.825 45.7897 117.798 43.3942 117.798 40.261C117.798 37.2474 116.884 34.9806 115.056 33.4604C113.227 31.9409 110.556 31.1809 107.043 31.1809H97.7939V60.2931H103.934V49.9381H106.568C110.16 49.9381 112.929 49.1092 114.876 47.4491Z" fill="white"/>
<path fill-rule="evenodd" clip-rule="evenodd" d="M73.8481 68.5678L43.0599 2.8383V2.83689C42.2878 1.19369 40.6764 0.10947 38.8503 0.00892323C36.9766 -0.100764 35.2981 0.807673 34.3511 2.35384L0.959608 56.7265C-0.074783 58.421 -0.0545008 60.5107 1.01836 62.1849L17.3407 87.6045C18.3135 89.1218 19.999 90 21.751 90C22.2476 90 22.7469 89.9297 23.2379 89.7834L70.6169 75.6956C72.0681 75.2639 73.255 74.2317 73.8761 72.8634C74.495 71.4944 74.4852 69.9277 73.8481 68.5678ZM66.9544 71.3876L26.7544 83.3407C25.5263 83.7063 24.3492 82.6383 24.6073 81.3931L38.9685 12.2482C39.2371 10.9552 41.0149 10.7499 41.5758 11.9473L68.1665 68.7148C68.6679 69.7856 68.0958 71.0487 66.9544 71.3876Z" fill="white"/>
</svg>
